<mxfile host="Electron" modified="2024-04-17T15:40:37.900Z" agent="Mozilla/5.0 (Windows NT 10.0; Win64; x64) AppleWebKit/537.36 (KHTML, like Gecko) draw.io/24.0.4 Chrome/120.0.6099.109 Electron/28.1.0 Safari/537.36" etag="lesevdHVQ-HS82o7m18U" version="24.0.4" type="device">
  <diagram name="Pagina-1" id="w5pfuJCNrzCVvQ2bsS5R">
    <mxGraphModel dx="1877" dy="629" grid="1" gridSize="10" guides="1" tooltips="1" connect="1" arrows="1" fold="1" page="1" pageScale="1" pageWidth="827" pageHeight="1169" math="0" shadow="0">
      <root>
        <mxCell id="0" />
        <mxCell id="1" parent="0" />
        <mxCell id="pHk5wYomZvPfdJBQNGCQ-4" style="edgeStyle=orthogonalEdgeStyle;rounded=0;orthogonalLoop=1;jettySize=auto;html=1;exitX=1;exitY=0.5;exitDx=0;exitDy=0;entryX=0;entryY=0.5;entryDx=0;entryDy=0;" edge="1" parent="1" source="pHk5wYomZvPfdJBQNGCQ-1" target="pHk5wYomZvPfdJBQNGCQ-3">
          <mxGeometry relative="1" as="geometry" />
        </mxCell>
        <mxCell id="pHk5wYomZvPfdJBQNGCQ-14" style="edgeStyle=orthogonalEdgeStyle;rounded=0;orthogonalLoop=1;jettySize=auto;html=1;exitX=0;exitY=0.5;exitDx=0;exitDy=0;entryX=1;entryY=0.5;entryDx=0;entryDy=0;" edge="1" parent="1" source="pHk5wYomZvPfdJBQNGCQ-1" target="pHk5wYomZvPfdJBQNGCQ-12">
          <mxGeometry relative="1" as="geometry" />
        </mxCell>
        <mxCell id="pHk5wYomZvPfdJBQNGCQ-18" style="edgeStyle=orthogonalEdgeStyle;rounded=0;orthogonalLoop=1;jettySize=auto;html=1;exitX=0.5;exitY=0;exitDx=0;exitDy=0;entryX=0.5;entryY=1;entryDx=0;entryDy=0;" edge="1" parent="1" source="pHk5wYomZvPfdJBQNGCQ-1" target="pHk5wYomZvPfdJBQNGCQ-16">
          <mxGeometry relative="1" as="geometry" />
        </mxCell>
        <mxCell id="pHk5wYomZvPfdJBQNGCQ-1" value="Impiegato" style="rounded=0;whiteSpace=wrap;html=1;" vertex="1" parent="1">
          <mxGeometry x="-40" y="290" width="120" height="60" as="geometry" />
        </mxCell>
        <mxCell id="pHk5wYomZvPfdJBQNGCQ-3" value="appartiene" style="rhombus;whiteSpace=wrap;html=1;" vertex="1" parent="1">
          <mxGeometry x="130" y="280" width="80" height="80" as="geometry" />
        </mxCell>
        <mxCell id="pHk5wYomZvPfdJBQNGCQ-7" style="edgeStyle=orthogonalEdgeStyle;rounded=0;orthogonalLoop=1;jettySize=auto;html=1;exitX=0;exitY=0.5;exitDx=0;exitDy=0;entryX=1;entryY=0.5;entryDx=0;entryDy=0;endArrow=doubleBlock;endFill=1;" edge="1" parent="1" source="pHk5wYomZvPfdJBQNGCQ-5" target="pHk5wYomZvPfdJBQNGCQ-3">
          <mxGeometry relative="1" as="geometry" />
        </mxCell>
        <mxCell id="pHk5wYomZvPfdJBQNGCQ-5" value="Reparto" style="rounded=0;whiteSpace=wrap;html=1;" vertex="1" parent="1">
          <mxGeometry x="260" y="290" width="120" height="60" as="geometry" />
        </mxCell>
        <mxCell id="pHk5wYomZvPfdJBQNGCQ-13" style="edgeStyle=orthogonalEdgeStyle;rounded=0;orthogonalLoop=1;jettySize=auto;html=1;exitX=1;exitY=0.5;exitDx=0;exitDy=0;entryX=0;entryY=0.5;entryDx=0;entryDy=0;endArrow=doubleBlock;endFill=1;" edge="1" parent="1" source="pHk5wYomZvPfdJBQNGCQ-11" target="pHk5wYomZvPfdJBQNGCQ-12">
          <mxGeometry relative="1" as="geometry" />
        </mxCell>
        <mxCell id="pHk5wYomZvPfdJBQNGCQ-20" style="edgeStyle=orthogonalEdgeStyle;rounded=0;orthogonalLoop=1;jettySize=auto;html=1;exitX=0.5;exitY=0;exitDx=0;exitDy=0;entryX=0.5;entryY=1;entryDx=0;entryDy=0;fillColor=#f8cecc;strokeColor=#b85450;" edge="1" parent="1" source="pHk5wYomZvPfdJBQNGCQ-11" target="pHk5wYomZvPfdJBQNGCQ-19">
          <mxGeometry relative="1" as="geometry" />
        </mxCell>
        <mxCell id="pHk5wYomZvPfdJBQNGCQ-11" value="Citta" style="rounded=0;whiteSpace=wrap;html=1;" vertex="1" parent="1">
          <mxGeometry x="-340" y="290" width="120" height="60" as="geometry" />
        </mxCell>
        <mxCell id="pHk5wYomZvPfdJBQNGCQ-12" value="appartiene" style="rhombus;whiteSpace=wrap;html=1;" vertex="1" parent="1">
          <mxGeometry x="-170" y="280" width="80" height="80" as="geometry" />
        </mxCell>
        <mxCell id="pHk5wYomZvPfdJBQNGCQ-17" style="edgeStyle=orthogonalEdgeStyle;rounded=0;orthogonalLoop=1;jettySize=auto;html=1;exitX=0.5;exitY=1;exitDx=0;exitDy=0;entryX=0.5;entryY=0;entryDx=0;entryDy=0;endArrow=doubleBlock;endFill=1;" edge="1" parent="1" source="pHk5wYomZvPfdJBQNGCQ-15" target="pHk5wYomZvPfdJBQNGCQ-16">
          <mxGeometry relative="1" as="geometry" />
        </mxCell>
        <mxCell id="pHk5wYomZvPfdJBQNGCQ-21" style="edgeStyle=orthogonalEdgeStyle;rounded=0;orthogonalLoop=1;jettySize=auto;html=1;exitX=0;exitY=0.5;exitDx=0;exitDy=0;entryX=1;entryY=0.5;entryDx=0;entryDy=0;endArrow=doubleBlock;endFill=1;fillColor=#f8cecc;strokeColor=#b85450;" edge="1" parent="1" source="pHk5wYomZvPfdJBQNGCQ-15" target="pHk5wYomZvPfdJBQNGCQ-19">
          <mxGeometry relative="1" as="geometry" />
        </mxCell>
        <mxCell id="pHk5wYomZvPfdJBQNGCQ-15" value="Provincia" style="rounded=0;whiteSpace=wrap;html=1;" vertex="1" parent="1">
          <mxGeometry x="-40" y="60" width="120" height="60" as="geometry" />
        </mxCell>
        <mxCell id="pHk5wYomZvPfdJBQNGCQ-16" value="appartiene" style="rhombus;whiteSpace=wrap;html=1;" vertex="1" parent="1">
          <mxGeometry x="-20" y="170" width="80" height="80" as="geometry" />
        </mxCell>
        <mxCell id="pHk5wYomZvPfdJBQNGCQ-19" value="appartiene" style="rhombus;whiteSpace=wrap;html=1;fillColor=#f8cecc;strokeColor=#b85450;" vertex="1" parent="1">
          <mxGeometry x="-320" y="50" width="80" height="80" as="geometry" />
        </mxCell>
        <mxCell id="pHk5wYomZvPfdJBQNGCQ-22" value="" style="endArrow=none;html=1;rounded=0;" edge="1" parent="1">
          <mxGeometry width="50" height="50" relative="1" as="geometry">
            <mxPoint x="250" y="340" as="sourcePoint" />
            <mxPoint x="250" y="300" as="targetPoint" />
          </mxGeometry>
        </mxCell>
        <mxCell id="pHk5wYomZvPfdJBQNGCQ-23" value="" style="endArrow=none;html=1;rounded=0;" edge="1" parent="1">
          <mxGeometry width="50" height="50" relative="1" as="geometry">
            <mxPoint x="-200" y="340" as="sourcePoint" />
            <mxPoint x="-200" y="300" as="targetPoint" />
          </mxGeometry>
        </mxCell>
        <mxCell id="pHk5wYomZvPfdJBQNGCQ-24" value="" style="endArrow=none;html=1;rounded=0;" edge="1" parent="1">
          <mxGeometry width="50" height="50" relative="1" as="geometry">
            <mxPoint x="-10" y="140" as="sourcePoint" />
            <mxPoint x="50" y="140" as="targetPoint" />
          </mxGeometry>
        </mxCell>
        <mxCell id="pHk5wYomZvPfdJBQNGCQ-25" value="" style="endArrow=none;html=1;rounded=0;fillColor=#f8cecc;strokeColor=#b85450;" edge="1" parent="1">
          <mxGeometry width="50" height="50" relative="1" as="geometry">
            <mxPoint x="-60" y="110" as="sourcePoint" />
            <mxPoint x="-60" y="70" as="targetPoint" />
          </mxGeometry>
        </mxCell>
      </root>
    </mxGraphModel>
  </diagram>
</mxfile>
